<?xml version="1.0" encoding="UTF-8" standalone="no"?>
<!-- Created by Talifero -->

<svg
   xmlns:dc="http://purl.org/dc/elements/1.1/"
   xmlns:cc="http://creativecommons.org/ns#"
   xmlns:rdf="http://www.w3.org/1999/02/22-rdf-syntax-ns#"
   xmlns:svg="http://www.w3.org/2000/svg"
   xmlns="http://www.w3.org/2000/svg"
   version="1.1"
   width="320"
   height="320"
   id="svg5362">
  <metadata
     id="metadata5368">
    <rdf:RDF>
      <cc:Work
         rdf:about="">
        <dc:format>image/svg+xml</dc:format>
        <dc:type
           rdf:resource="http://purl.org/dc/dcmitype/StillImage" />
        <dc:title></dc:title>
      </cc:Work>
    </rdf:RDF>
  </metadata>
  <defs
     id="defs5366" />
  <path
     d="M 60.677966,83.050847 175.59322,62.033898 258.64407,101.01695 122.71186,136.94915 z"
     id="path5372"
     style="fill:none;stroke:#000000;stroke-width:1px;stroke-linecap:butt;stroke-linejoin:miter;stroke-opacity:1" />
  <path
     d="m 75.932203,194.23729 97.288137,-30.84746 68.81356,56.27119 -112.54237,49.83051 z"
     id="path5374"
     style="fill:none;stroke:#000000;stroke-width:1px;stroke-linecap:butt;stroke-linejoin:miter;stroke-opacity:1" />
  <path
     d="M 60.169492,83.050847 75.59322,194.40678"
     id="path5376"
     style="fill:none;stroke:#000000;stroke-width:1px;stroke-linecap:butt;stroke-linejoin:miter;stroke-opacity:1" />
  <path
     d="m 122.71186,136.94915 6.44068,132.0339"
     id="path5378"
     style="fill:none;stroke:#000000;stroke-width:1px;stroke-linecap:butt;stroke-linejoin:miter;stroke-opacity:1" />
  <path
     d="m 175.42373,62.203389 -2.0339,101.186441"
     id="path5380"
     style="fill:none;stroke:#000000;stroke-width:1px;stroke-linecap:butt;stroke-linejoin:miter;stroke-opacity:1" />
  <path
     d="M 258.64407,101.18644 242.0339,219.49153"
     id="path5382"
     style="fill:none;stroke:#000000;stroke-width:1px;stroke-linecap:butt;stroke-linejoin:miter;stroke-opacity:1" />
  <path
     d="m 127.9661,137.28813 a 4.237288,4.237288 0 1 1 -8.47457,0 4.237288,4.237288 0 1 1 8.47457,0 z"
     transform="translate(-0.6779661,-0.84745763)"
     id="path5384"
     style="stroke-width:1;stroke-miterlimit:4;stroke-dasharray:12, 12;stroke-dashoffset:0" />
  <path
     d="m 127.9661,137.28813 a 4.237288,4.237288 0 1 1 -8.47457,0 4.237288,4.237288 0 1 1 8.47457,0 z"
     transform="matrix(0.75999999,0,0,0.75999999,-33.186439,-21.11864)"
     id="path5384-0"
     style="stroke-width:1;stroke-miterlimit:4;stroke-dasharray:12, 12;stroke-dashoffset:0" />
  <path
     d="m 127.9661,137.28813 a 4.237288,4.237288 0 1 1 -8.47457,0 4.237288,4.237288 0 1 1 8.47457,0 z"
     transform="matrix(0.75999999,0,0,0.75999999,164.1017,-3.3220299)"
     id="path5384-0-9"
     style="stroke-width:1;stroke-miterlimit:4;stroke-dasharray:12, 12;stroke-dashoffset:0" />
  <path
     d="m 127.9661,137.28813 a 4.237288,4.237288 0 1 1 -8.47457,0 4.237288,4.237288 0 1 1 8.47457,0 z"
     transform="matrix(0.75999999,0,0,0.75999999,147.83051,115.15255)"
     id="path5384-0-3"
     style="stroke-width:1;stroke-miterlimit:4;stroke-dasharray:12, 12;stroke-dashoffset:0" />
  <path
     d="m 127.9661,137.28813 a 4.237288,4.237288 0 1 1 -8.47457,0 4.237288,4.237288 0 1 1 8.47457,0 z"
     transform="matrix(0.75999999,0,0,0.75999999,-18.271185,90.067801)"
     id="path5384-0-6"
     style="stroke-width:1;stroke-miterlimit:4;stroke-dasharray:12, 12;stroke-dashoffset:0" />
  <path
     d="m 127.9661,137.28813 a 4.237288,4.237288 0 1 1 -8.47457,0 4.237288,4.237288 0 1 1 8.47457,0 z"
     transform="translate(5.8474582,130.76272)"
     id="path5384-4"
     style="stroke-width:1;stroke-miterlimit:4;stroke-dasharray:12, 12;stroke-dashoffset:0" />
  <path
     d="m 127.9661,137.28813 a 4.237288,4.237288 0 1 1 -8.47457,0 4.237288,4.237288 0 1 1 8.47457,0 z"
     transform="matrix(0.57999999,0,0,0.57999999,103.74665,-17.408304)"
     id="path5384-7"
     style="stroke-width:1;stroke-miterlimit:4;stroke-dasharray:12, 12;stroke-dashoffset:0" />
  <path
     d="m 127.9661,137.28813 a 4.237288,4.237288 0 1 1 -8.47457,0 4.237288,4.237288 0 1 1 8.47457,0 z"
     transform="matrix(0.57999999,0,0,0.57999999,101.47881,83.550851)"
     id="path5384-7-9"
     style="stroke-width:1;stroke-miterlimit:4;stroke-dasharray:12, 12;stroke-dashoffset:0" />
</svg>
